<?xml version="1.0" standalone="no"?>
<!DOCTYPE svg PUBLIC "-//W3C//DTD SVG 20010904//EN"
 "http://www.w3.org/TR/2001/REC-SVG-20010904/DTD/svg10.dtd">
<svg version="1.0" xmlns="http://www.w3.org/2000/svg"
 width="1322.000000pt" height="430.000000pt" viewBox="0 0 1322.000000 430.000000"
 preserveAspectRatio="xMidYMid meet">

<g transform="translate(0.000000,430.000000) scale(0.100000,-0.100000)"
fill="#000000" stroke="none">
<path d="M3540 4208 c-227 -160 -411 -358 -567 -613 -45 -73 -133 -245 -133
-259 0 -3 -13 -34 -28 -68 -37 -82 -57 -146 -49 -155 8 -8 3 -14 67 82 156
235 433 513 672 673 43 29 82 61 88 71 11 22 14 301 3 301 -5 -1 -28 -15 -53
-32z"/>
<path d="M3890 3951 c-129 -72 -156 -88 -239 -143 -218 -146 -412 -311 -586
-498 -96 -103 -130 -150 -110 -150 3 0 38 20 78 44 68 41 153 90 375 218 46
26 165 89 397 208 99 50 187 98 196 106 13 12 17 39 18 139 2 124 2 125 -21
124 -13 -1 -61 -22 -108 -48z"/>
<path d="M8365 3778 c-3 -7 -6 -95 -7 -196 l-3 -183 -21 19 c-56 52 -103 67
-219 67 -104 0 -114 -2 -177 -33 -152 -74 -238 -219 -238 -402 0 -183 87 -328
240 -403 60 -29 73 -32 170 -32 111 0 150 10 206 51 47 35 58 34 64 -6 l5 -35
105 -3 c58 -2 115 0 128 3 l22 5 0 580 0 580 -135 0 c-99 0 -137 -3 -140 -12z
m-112 -532 c106 -44 147 -207 81 -323 -41 -72 -127 -106 -210 -84 -68 18 -116
76 -136 160 -22 96 28 211 106 246 41 18 118 19 159 1z"/>
<path d="M5325 3725 c-167 -27 -262 -87 -321 -205 -37 -73 -39 -190 -5 -261
48 -100 125 -142 383 -208 143 -37 194 -66 204 -116 9 -48 -14 -79 -72 -99
-95 -32 -257 -10 -387 54 -77 37 -95 38 -103 3 -4 -16 -20 -56 -36 -91 -15
-34 -28 -69 -28 -77 0 -34 153 -88 318 -113 104 -15 121 -15 223 0 86 12 126
24 184 52 77 38 107 66 153 144 24 42 27 56 27 142 0 106 -12 140 -69 192 -59
55 -139 89 -333 138 -177 45 -208 67 -201 140 9 92 207 119 392 53 106 -37
106 -37 132 32 48 128 50 136 30 151 -32 23 -148 55 -256 69 -122 17 -129 17
-235 0z"/>
<path d="M1310 3703 c1 -33 37 -229 43 -241 4 -6 33 -14 65 -17 152 -18 378
-63 532 -106 19 -6 49 -14 65 -19 123 -34 309 -108 465 -184 63 -31 119 -55
123 -53 26 8 -251 230 -386 309 -225 132 -508 245 -769 307 -108 26 -138 27
-138 4z"/>
<path d="M4095 3622 c-104 -54 -251 -130 -325 -169 -180 -94 -595 -306 -802
-411 -92 -47 -170 -92 -173 -101 -2 -9 -9 -63 -15 -121 -6 -58 -15 -145 -20
-195 -6 -49 -14 -135 -20 -190 -9 -96 -21 -200 -40 -370 -5 -44 -14 -123 -20
-175 -32 -288 -40 -357 -60 -525 -15 -120 -24 -235 -18 -235 6 0 75 30 181 79
37 17 97 45 135 62 37 17 126 57 197 89 178 79 287 128 450 205 55 25 136 63
180 83 131 60 168 84 177 117 9 33 53 239 68 325 6 30 42 215 80 410 38 195
79 405 91 465 11 61 24 128 29 150 5 22 14 65 20 95 38 203 68 360 81 417 11
51 12 93 2 93 -5 -1 -93 -45 -198 -98z"/>
<path d="M9821 3700 c-3 -8 -4 -253 -1 -545 l5 -530 130 0 130 0 5 140 5 140
64 63 c36 34 68 62 72 62 10 0 66 -69 199 -245 62 -82 118 -153 124 -157 6 -4
80 -8 165 -8 131 0 152 2 147 15 -3 8 -78 113 -167 232 -89 120 -186 250 -216
290 -29 39 -53 77 -53 85 0 7 24 38 53 69 28 30 72 78 97 105 25 27 92 101
150 163 58 63 105 119 105 125 0 11 -263 11 -295 -1 -8 -3 -51 -44 -95 -92
-221 -237 -331 -351 -338 -348 -5 1 -11 101 -12 221 -2 120 -5 220 -7 221 -2
2 -61 5 -132 7 -106 2 -129 0 -135 -12z"/>
<path d="M6163 3662 l-123 -3 0 -104 0 -104 -57 -3 -58 -3 -3 -102 -3 -103 60
0 59 0 4 -197 c3 -160 7 -208 22 -247 32 -89 83 -136 176 -166 57 -19 210 -19
272 -1 57 16 73 32 59 58 -6 10 -20 46 -32 81 -12 34 -26 65 -32 69 -5 3 -26
0 -47 -7 -47 -16 -84 -7 -116 27 -24 26 -24 28 -22 207 l3 181 95 1 95 2 3
102 3 102 -88 -2 c-48 -1 -94 -2 -100 -1 -10 1 -13 29 -13 105 0 91 -2 104
-17 107 -10 2 -73 3 -140 1z"/>
<path d="M12758 3662 l-117 -3 -3 -107 -3 -107 -58 -3 -58 -3 3 -97 3 -97 58
-3 57 -3 0 -177 c0 -229 17 -298 92 -369 57 -55 119 -75 233 -77 112 -1 195
17 195 42 0 9 -12 54 -26 100 -29 92 -21 87 -107 66 -37 -9 -83 12 -96 45 -7
17 -10 90 -9 201 l3 175 95 5 95 5 3 83 c2 53 -1 89 -9 98 -8 10 -36 14 -100
14 l-89 0 0 105 c0 58 -4 105 -9 105 -5 0 -15 1 -23 3 -7 1 -66 1 -130 -1z"/>
<path d="M11190 3481 c-70 -10 -164 -37 -212 -62 -21 -11 -38 -21 -38 -22 0
-8 73 -183 79 -190 4 -4 29 4 57 18 136 68 309 48 351 -39 28 -59 18 -66 -104
-67 -297 -1 -423 -77 -423 -255 0 -85 28 -145 89 -189 62 -45 119 -60 226 -59
95 1 162 22 201 65 25 28 32 24 36 -18 l3 -38 125 0 125 0 3 274 c2 217 -1
286 -13 332 -40 159 -160 243 -360 253 -49 3 -115 1 -145 -3z m248 -540 c17
-118 -155 -207 -252 -130 -49 39 -29 128 34 152 8 3 60 5 115 4 97 -2 100 -3
103 -26z"/>
<path d="M12370 3481 c-53 -12 -111 -39 -151 -71 l-37 -29 -7 44 c-8 55 -13
57 -155 53 l-105 -3 -3 -414 c-2 -302 1 -417 9 -428 9 -10 39 -13 133 -11
l121 3 5 230 c5 220 6 232 30 280 36 73 86 103 175 107 l70 3 0 120 0 120 -25
2 c-14 0 -41 -2 -60 -6z"/>
<path d="M6693 3473 c-17 -6 -18 -508 -2 -585 25 -116 83 -197 175 -243 54
-27 68 -29 164 -29 116 0 154 11 214 65 20 17 40 28 46 24 5 -3 10 -24 10 -46
l0 -40 128 3 127 3 3 414 c1 259 -1 418 -8 425 -8 8 -249 10 -257 2 -2 -1 -4
-111 -7 -244 l-3 -242 -29 -47 c-69 -110 -215 -117 -273 -13 -20 36 -21 53
-21 287 0 180 -3 252 -12 261 -12 12 -228 16 -255 5z"/>
<path d="M8745 3467 c-5 -11 54 -169 105 -282 10 -22 27 -61 38 -86 12 -25 30
-70 42 -99 12 -29 29 -72 40 -94 58 -130 113 -265 117 -293 5 -27 0 -37 -27
-63 -27 -25 -40 -30 -84 -30 -33 0 -62 7 -84 20 -18 11 -38 20 -45 20 -15 0
-101 -166 -94 -184 15 -38 178 -82 268 -72 148 15 244 89 311 236 9 19 25 55
36 80 11 25 65 158 121 295 55 138 127 315 161 395 33 80 62 150 63 155 3 16
-248 19 -260 3 -6 -7 -21 -42 -33 -77 -12 -36 -47 -124 -77 -195 -30 -72 -64
-158 -76 -190 -13 -33 -27 -61 -32 -63 -6 -2 -15 9 -21 24 -47 114 -154 389
-154 395 0 4 -11 32 -25 63 l-26 55 -130 0 c-95 0 -131 -3 -134 -13z"/>
<path d="M1085 3331 c-3 -6 -1 -29 4 -53 5 -24 15 -76 22 -116 7 -40 18 -77
25 -82 7 -7 229 -14 600 -21 324 -5 615 -12 647 -16 110 -11 66 13 -163 90
-292 98 -563 154 -946 197 -113 13 -181 13 -189 1z"/>
<path d="M1537 2923 l-569 -3 8 -190 7 -190 -69 -31 c-38 -17 -82 -36 -99 -44
-16 -7 -56 -25 -88 -39 -32 -14 -60 -26 -62 -26 -2 0 -28 -11 -57 -24 -29 -13
-87 -38 -128 -56 -266 -114 -289 -126 -296 -155 -7 -29 18 -65 46 -65 10 0 78
25 151 55 136 57 344 140 502 201 48 19 98 34 112 34 22 0 308 109 421 160 22
11 65 28 94 40 29 12 72 29 94 39 142 64 209 91 224 91 34 -1 72 -48 72 -89 0
-20 -62 -91 -80 -91 -5 0 -39 -13 -75 -30 -36 -16 -68 -30 -70 -30 -2 0 -28
-11 -57 -24 -30 -14 -78 -34 -108 -46 -30 -12 -78 -32 -108 -46 -29 -13 -55
-24 -57 -24 -2 0 -28 -11 -57 -24 -124 -56 -147 -66 -198 -86 -51 -20 -74 -30
-198 -86 -29 -13 -55 -24 -57 -24 -2 0 -28 -11 -57 -24 -29 -13 -87 -38 -128
-54 -182 -72 -222 -102 -197 -148 13 -25 27 -34 52 -34 10 0 121 41 246 90
124 50 232 90 240 90 8 0 20 -5 26 -11 12 -12 68 4 160 46 94 43 156 25 156
-46 0 -44 -44 -81 -143 -119 -134 -51 -150 -59 -150 -79 0 -47 23 -237 29
-244 8 -8 106 30 316 123 132 59 164 64 189 28 9 -12 16 -30 16 -39 0 -19 -46
-79 -61 -79 -5 0 -31 -10 -57 -21 -83 -37 -104 -46 -237 -99 -71 -28 -146 -58
-165 -67 -19 -8 -44 -18 -55 -23 -27 -10 -63 -25 -105 -43 -19 -9 -93 -39
-165 -67 -71 -29 -154 -63 -183 -76 -29 -13 -56 -24 -61 -24 -5 0 -16 -12 -26
-26 -13 -21 -15 -31 -6 -50 17 -38 61 -30 241 42 91 37 207 82 257 100 89 32
93 32 103 14 5 -10 10 -50 10 -87 0 -40 5 -74 12 -81 9 -9 78 -12 250 -12 131
0 238 -3 238 -6 0 -3 -14 -45 -32 -92 -27 -75 -31 -101 -32 -187 -1 -91 2
-105 27 -153 30 -57 88 -106 154 -129 78 -26 203 -10 318 42 17 7 134 55 260
105 127 51 250 101 275 112 25 11 69 31 98 44 29 13 55 24 57 24 2 0 35 14 72
31 106 48 126 67 147 140 11 35 25 76 33 91 7 16 9 28 4 28 -13 0 -97 -33
-169 -66 -29 -13 -55 -24 -57 -24 -2 0 -28 -11 -57 -24 -29 -13 -111 -48 -183
-76 -71 -29 -148 -60 -170 -70 -77 -35 -400 -162 -450 -177 -99 -30 -175 25
-175 126 0 64 42 161 95 220 l37 41 314 0 c225 0 315 3 320 12 4 6 11 48 15
92 16 166 39 379 60 551 5 44 13 121 19 170 5 50 14 131 20 180 6 50 15 133
20 185 12 114 19 181 60 529 9 76 9 96 -2 102 -7 5 -134 8 -283 6 -148 -1
-526 -3 -838 -4z"/>
<path d="M5270 2296 c-97 -29 -149 -58 -213 -116 -107 -98 -158 -219 -159
-375 0 -115 10 -162 59 -262 88 -177 272 -282 500 -283 114 0 215 24 350 86
l51 23 4 123 c2 68 2 165 0 216 l-3 93 -112 -3 -112 -3 -2 -125 c-2 -69 -5
-135 -8 -147 -11 -46 -206 -58 -290 -18 -143 69 -213 253 -155 407 21 57 82
124 135 151 113 56 255 38 366 -46 l46 -36 76 77 c43 43 77 82 77 89 0 15 -99
89 -158 118 -125 60 -313 73 -452 31z"/>
<path d="M6440 2309 c-135 -35 -216 -78 -288 -153 -104 -108 -136 -192 -137
-361 0 -126 3 -141 57 -252 97 -203 373 -324 613 -268 143 32 223 75 301 161
94 102 134 214 134 369 0 106 -24 188 -81 277 -66 103 -207 195 -341 224 -71
15 -205 17 -258 3z m205 -224 c145 -44 213 -152 202 -320 -4 -68 -10 -94 -32
-132 -90 -153 -269 -198 -410 -102 -53 35 -68 53 -101 119 -25 48 -28 66 -28
145 0 74 4 98 23 135 70 136 206 197 346 155z"/>
<path d="M7240 2253 c0 -42 19 -301 39 -523 l6 -75 99 -3 c73 -2 102 1 108 10
4 7 8 42 8 77 0 34 9 171 20 302 12 132 18 244 15 249 -4 6 -69 10 -151 10
l-144 0 0 -47z"/>
<path d="M700 1679 c-52 -22 -108 -46 -125 -53 -16 -8 -77 -33 -135 -56 -58
-23 -127 -52 -155 -64 -27 -13 -67 -29 -88 -37 -21 -7 -52 -25 -70 -40 -28
-24 -31 -29 -22 -55 17 -48 51 -46 180 12 28 12 108 45 180 74 72 28 144 58
160 65 17 7 68 27 115 45 98 38 130 63 130 100 0 61 -39 63 -170 9z"/>
<path d="M7320 1538 c-114 -58 -103 -213 19 -264 47 -20 77 -18 122 8 103 58
106 204 5 252 -61 29 -96 30 -146 4z"/>
<path d="M3426 1364 c-9 -8 -19 -27 -22 -42 -12 -57 -27 -82 -61 -102 -44 -26
-66 -25 -114 2 l-39 22 -41 -40 c-59 -57 -65 -77 -36 -133 19 -36 22 -53 15
-77 -10 -38 -24 -51 -92 -84 l-51 -25 0 -65 0 -65 52 -10 c29 -6 60 -18 70
-27 26 -27 22 -80 -10 -117 -36 -43 -34 -60 11 -104 46 -45 68 -46 117 -7 72
57 155 24 155 -63 0 -43 21 -51 92 -35 l63 13 16 60 c14 54 20 63 61 88 l46
29 41 -21 c22 -12 47 -21 55 -21 17 0 96 89 96 108 0 8 -9 25 -20 39 -46 59
-15 131 71 163 64 24 69 31 69 99 0 51 -12 71 -46 71 -39 0 -81 21 -93 46 -16
37 -14 57 14 105 31 55 31 61 -2 95 -57 59 -56 59 -117 18 -46 -30 -61 -35
-90 -30 -41 8 -49 17 -66 79 l-13 47 -58 0 c-39 0 -63 -5 -73 -16z m135 -275
c50 -17 86 -56 105 -111 14 -43 14 -56 3 -96 -35 -129 -121 -203 -236 -203
-61 0 -103 19 -135 63 -19 27 -23 46 -23 103 0 59 5 78 28 118 31 53 97 105
155 124 48 15 62 15 103 2z"/>
<path d="M4810 990 c-7 -28 -10 -56 -7 -63 4 -11 263 -13 1376 -15 l1372 -1
10 27 c6 15 13 44 16 65 l6 37 -1381 0 -1380 0 -12 -50z"/>
<path d="M4760 715 c-6 -8 -12 -36 -13 -62 l-2 -48 1145 -1 c630 0 1248 2
1375 5 l229 6 13 45 c7 25 11 51 8 58 -3 10 -283 12 -1374 12 -1179 0 -1370
-2 -1381 -15z"/>
<path d="M2028 515 c-74 -39 -128 -130 -128 -216 0 -146 169 -201 283 -91 95
91 111 218 35 294 -35 35 -43 38 -90 38 -36 -1 -68 -9 -100 -25z"/>
</g>
</svg>
